<svg xmlns="http://www.w3.org/2000/svg"><title>Set</title><defs><pattern id="Patblue" x="0" y="0" width=".125" height=".0625"><circle cx="3" cy="3" r="2" fill="blue" /></pattern><pattern id="Patgreen" x="0" y="0" width=".125" height=".0625"><circle cx="3" cy="3" r="2" fill="green" /></pattern><pattern id="Patred" x="0" y="0" width=".125" height=".0625"><circle cx="3" cy="3" r="2" fill="red" /></pattern></defs><path stroke="black" stroke-width="2" fill="none" d="m 5,5 l 0,170 l 190,0 l 0,-170 z" /><path stroke="red" stroke-width="3" fill="url(#Patred)" d="m 85,20 q -50,-5 -20,20 q 20,20 0,40 q -50,40 0,80 q 50,5 20,-20 q -20,-20 0,-40 q 50,-40 0,-80" /><path stroke="red" stroke-width="3" fill="url(#Patred)" d="m 135,20 q -50,-5 -20,20 q 20,20 0,40 q -50,40 0,80 q 50,5 20,-20 q -20,-20 0,-40 q 50,-40 0,-80" /><path stroke="black" stroke-width="2" fill="none" d="m 205,185 l 0,170 l 190,0 l 0,-170 z" /><ellipse cx="250" cy="270" rx="20" ry="75" fill="green" stroke-width="3" stroke="green" /><ellipse cx="300" cy="270" rx="20" ry="75" fill="green" stroke-width="3" stroke="green" /><ellipse cx="350" cy="270" rx="20" ry="75" fill="green" stroke-width="3" stroke="green" /></svg>
