<svg xmlns="http://www.w3.org/2000/svg"><title>Set</title><defs><pattern id="Patblue" x="0" y="0" width=".125" height=".0625"><circle cx="3" cy="3" r="2" fill="blue" /></pattern><pattern id="Patgreen" x="0" y="0" width=".125" height=".0625"><circle cx="3" cy="3" r="2" fill="green" /></pattern><pattern id="Patred" x="0" y="0" width=".125" height=".0625"><circle cx="3" cy="3" r="2" fill="red" /></pattern></defs><path stroke="black" stroke-width="2" fill="none" d="m 5,5 l 0,170 l 190,0 l 0,-170 z" /><path stroke="blue" stroke-width="4" fill="blue" d="m 60,20 q -50,-5 -20,20 q 20,20 0,40 q -50,40 0,80 q 50,5 20,-20 q -20,-20 0,-40 q 50,-40 0,-80" /><path stroke="blue" stroke-width="4" fill="blue" d="m 110,20 q -50,-5 -20,20 q 20,20 0,40 q -50,40 0,80 q 50,5 20,-20 q -20,-20 0,-40 q 50,-40 0,-80" /><path stroke="blue" stroke-width="4" fill="blue" d="m 160,20 q -50,-5 -20,20 q 20,20 0,40 q -50,40 0,80 q 50,5 20,-20 q -20,-20 0,-40 q 50,-40 0,-80" /><path stroke="black" stroke-width="2" fill="none" d="m 5,185 l 0,170 l 190,0 l 0,-170 z" /><path stroke="blue" stroke-width="4" fill="none" d="m 110,200 q -50,-5 -20,20 q 20,20 0,40 q -50,40 0,80 q 50,5 20,-20 q -20,-20 0,-40 q 50,-40 0,-80" /><path stroke="black" stroke-width="2" fill="none" d="m 5,365 l 0,170 l 190,0 l 0,-170 z" /><path stroke="red" stroke-width="4" fill="url(#Patred)" d="m 60,380 q -50,-5 -20,20 q 20,20 0,40 q -50,40 0,80 q 50,5 20,-20 q -20,-20 0,-40 q 50,-40 0,-80" /><path stroke="red" stroke-width="4" fill="url(#Patred)" d="m 110,380 q -50,-5 -20,20 q 20,20 0,40 q -50,40 0,80 q 50,5 20,-20 q -20,-20 0,-40 q 50,-40 0,-80" /><path stroke="red" stroke-width="4" fill="url(#Patred)" d="m 160,380 q -50,-5 -20,20 q 20,20 0,40 q -50,40 0,80 q 50,5 20,-20 q -20,-20 0,-40 q 50,-40 0,-80" /><path stroke="black" stroke-width="2" fill="none" d="m 205,5 l 0,170 l 190,0 l 0,-170 z" /><path stroke="blue" stroke-width="4" fill="blue" d="m 300,20 l -20,70 l 20,70 l 20,-70 z" /><path stroke="black" stroke-width="2" fill="none" d="m 205,185 l 0,170 l 190,0 l 0,-170 z" /><ellipse cx="250" cy="270" rx="20" ry="75" fill="red" stroke-width="4" stroke="red" /><ellipse cx="300" cy="270" rx="20" ry="75" fill="red" stroke-width="4" stroke="red" /><ellipse cx="350" cy="270" rx="20" ry="75" fill="red" stroke-width="4" stroke="red" /><path stroke="black" stroke-width="2" fill="none" d="m 205,365 l 0,170 l 190,0 l 0,-170 z" /><ellipse cx="300" cy="450" rx="20" ry="75" fill="blue" stroke-width="4" stroke="blue" /><path stroke="black" stroke-width="2" fill="none" d="m 405,5 l 0,170 l 190,0 l 0,-170 z" /><path stroke="red" stroke-width="4" fill="none" d="m 450,20 l -20,70 l 20,70 l 20,-70 z" /><path stroke="red" stroke-width="4" fill="none" d="m 500,20 l -20,70 l 20,70 l 20,-70 z" /><path stroke="red" stroke-width="4" fill="none" d="m 550,20 l -20,70 l 20,70 l 20,-70 z" /><path stroke="black" stroke-width="2" fill="none" d="m 405,185 l 0,170 l 190,0 l 0,-170 z" /><path stroke="red" stroke-width="4" fill="red" d="m 460,200 q -50,-5 -20,20 q 20,20 0,40 q -50,40 0,80 q 50,5 20,-20 q -20,-20 0,-40 q 50,-40 0,-80" /><path stroke="red" stroke-width="4" fill="red" d="m 510,200 q -50,-5 -20,20 q 20,20 0,40 q -50,40 0,80 q 50,5 20,-20 q -20,-20 0,-40 q 50,-40 0,-80" /><path stroke="red" stroke-width="4" fill="red" d="m 560,200 q -50,-5 -20,20 q 20,20 0,40 q -50,40 0,80 q 50,5 20,-20 q -20,-20 0,-40 q 50,-40 0,-80" /><path stroke="black" stroke-width="2" fill="none" d="m 405,365 l 0,170 l 190,0 l 0,-170 z" /><path stroke="green" stroke-width="4" fill="url(#Patgreen)" d="m 460,380 q -50,-5 -20,20 q 20,20 0,40 q -50,40 0,80 q 50,5 20,-20 q -20,-20 0,-40 q 50,-40 0,-80" /><path stroke="green" stroke-width="4" fill="url(#Patgreen)" d="m 510,380 q -50,-5 -20,20 q 20,20 0,40 q -50,40 0,80 q 50,5 20,-20 q -20,-20 0,-40 q 50,-40 0,-80" /><path stroke="green" stroke-width="4" fill="url(#Patgreen)" d="m 560,380 q -50,-5 -20,20 q 20,20 0,40 q -50,40 0,80 q 50,5 20,-20 q -20,-20 0,-40 q 50,-40 0,-80" /></svg>